<svg xmlns="http://www.w3.org/2000/svg" width="894" height="190" viewBox="0 0 894 190" role="img" aria-label="Drako: content">
<title>Drako - content</title>
<rect width="894" height="190" fill="#0d1117"/>
<line x1="0" y1="158" x2="894" y2="158" stroke="#30363d" stroke-width="2" stroke-dasharray="8 8"/>
<g><animate attributeName="opacity" values="1;0;1" keyTimes="0;0.5;1" calcMode="discrete" dur="0.7s" repeatCount="indefinite"/><rect x="222" y="134" width="3" height="3" fill="#ff7b72"/><rect x="222" y="137" width="6" height="3" fill="#ff7b72"/><rect x="219" y="140" width="3" height="3" fill="#ff7b72"/><rect x="222" y="140" width="6" height="3" fill="#ffa657"/><rect x="228" y="140" width="3" height="3" fill="#ff7b72"/><rect x="219" y="143" width="3" height="3" fill="#ff7b72"/><rect x="222" y="143" width="6" height="3" fill="#ffa657"/><rect x="228" y="143" width="3" height="3" fill="#ff7b72"/><rect x="216" y="146" width="18" height="3" fill="#ff7b72"/><rect x="216" y="149" width="18" height="3" fill="#ff7b72"/><rect x="213" y="152" width="24" height="3" fill="#8b5e34"/><rect x="216" y="155" width="18" height="3" fill="#8b5e34"/></g>
<g opacity="0"><animate attributeName="opacity" values="0;1;0" keyTimes="0;0.5;1" calcMode="discrete" dur="0.7s" repeatCount="indefinite"/><rect x="225" y="134" width="3" height="3" fill="#ff7b72"/><rect x="222" y="137" width="6" height="3" fill="#ff7b72"/><rect x="219" y="140" width="3" height="3" fill="#ff7b72"/><rect x="222" y="140" width="6" height="3" fill="#ffa657"/><rect x="216" y="143" width="6" height="3" fill="#ff7b72"/><rect x="222" y="143" width="6" height="3" fill="#ffa657"/><rect x="228" y="143" width="3" height="3" fill="#ff7b72"/><rect x="216" y="146" width="15" height="3" fill="#ff7b72"/><rect x="216" y="149" width="18" height="3" fill="#ff7b72"/><rect x="213" y="152" width="24" height="3" fill="#8b5e34"/><rect x="216" y="155" width="18" height="3" fill="#8b5e34"/></g>
<rect x="222" y="126" width="4" height="4" rx="2" fill="#30363d" opacity="0"><animate attributeName="y" values="126;94" dur="2s" repeatCount="indefinite"/><animate attributeName="opacity" values="0;0.7;0" keyTimes="0;0.3;1" dur="2s" repeatCount="indefinite"/></rect>
<rect x="54" y="118" width="80" height="40" fill="none" stroke="#30363d" stroke-width="2"/>
<line x1="54" y1="118" x2="94" y2="106" stroke="#30363d" stroke-width="2"/>
<g transform="translate(430,0)"><g><animateTransform attributeName="transform" type="translate" values="0 0;0 0;52 -10;52 0;52 0;0 0" keyTimes="0;0.660;0.690;0.780;0.860;1" dur="32s" begin="7s" repeatCount="indefinite"/><rect x="0" y="128" width="12" height="6" fill="#d2a8ff"/><rect x="42" y="128" width="12" height="6" fill="#d2a8ff"/><rect x="0" y="134" width="12" height="6" fill="#d2a8ff"/><rect x="42" y="134" width="12" height="6" fill="#d2a8ff"/><rect x="0" y="140" width="12" height="6" fill="#d2a8ff"/><rect x="12" y="140" width="30" height="6" fill="#8b949e"/><rect x="42" y="140" width="12" height="6" fill="#d2a8ff"/><rect x="0" y="146" width="12" height="6" fill="#d2a8ff"/><rect x="42" y="146" width="12" height="6" fill="#d2a8ff"/><rect x="0" y="152" width="12" height="6" fill="#d2a8ff"/><rect x="42" y="152" width="12" height="6" fill="#d2a8ff"/></g></g>
<rect x="646" y="134" width="60" height="6" fill="#e6edf3"/>
<rect x="652" y="140" width="48" height="6" fill="#e6edf3"/>
<rect x="658" y="146" width="36" height="6" fill="#e6edf3"/>
<rect x="664" y="128" width="6" height="6" fill="#ff9bce"/>
<rect x="676" y="128" width="6" height="6" fill="#ff9bce"/>
<g transform="translate(70,0)"><animateTransform attributeName="transform" type="translate" values="70 0;500 0;500 0;320 0;320 0;70 0;70 0" keyTimes="0;0.12;0.35;0.45;0.62;0.82;1" dur="32s" begin="7s" repeatCount="indefinite"/>
<g><animateTransform attributeName="transform" type="translate" values="0 0;0 -3;0 0" dur="0.7s" repeatCount="indefinite"/>
<rect x="0" y="122" width="6" height="6" fill="#9C2B57"/>
<rect x="12" y="122" width="96" height="6" fill="#FF3D68"/>
<rect x="114" y="122" width="6" height="6" fill="#9C2B57"/>
<rect x="0" y="128" width="12" height="6" fill="#9C2B57"/>
<rect x="18" y="128" width="6" height="6" fill="#FF3D68"/>
<rect x="24" y="128" width="72" height="6" fill="#FFD3A8"/>
<rect x="96" y="128" width="6" height="6" fill="#FF3D68"/>
<rect x="108" y="128" width="12" height="6" fill="#9C2B57"/>
<rect x="0" y="134" width="18" height="6" fill="#9C2B57"/>
<rect x="24" y="134" width="6" height="6" fill="#FF3D68"/>
<rect x="30" y="134" width="60" height="6" fill="#FFD3A8"/>
<rect x="90" y="134" width="6" height="6" fill="#FF3D68"/>
<rect x="102" y="134" width="18" height="6" fill="#9C2B57"/>
<rect x="24" y="140" width="6" height="6" fill="#FF3D68"/>
<rect x="30" y="140" width="60" height="6" fill="#FFD3A8"/>
<rect x="90" y="140" width="6" height="6" fill="#FF3D68"/>
<rect x="18" y="146" width="84" height="6" fill="#FF3D68"/>
<rect x="18" y="152" width="18" height="6" fill="#FF3D68"/>
<rect x="48" y="152" width="24" height="6" fill="#FF3D68"/>
<rect x="84" y="152" width="18" height="6" fill="#FF3D68"/>
<g><animate attributeName="opacity" values="1;0;1" keyTimes="0;0.5;1" calcMode="discrete" dur="1.4s" repeatCount="indefinite"/><rect x="102" y="152" width="6" height="6" fill="#FF3D68"/><rect x="108" y="152" width="6" height="6" fill="#FF3D68"/><rect x="114" y="146" width="6" height="6" fill="#FFB84A"/></g>
<g opacity="0"><animate attributeName="opacity" values="0;1;0" keyTimes="0;0.5;1" calcMode="discrete" dur="1.4s" repeatCount="indefinite"/><rect x="102" y="152" width="6" height="6" fill="#FF3D68"/><rect x="108" y="146" width="6" height="6" fill="#FF3D68"/><rect x="108" y="140" width="6" height="6" fill="#FFB84A"/></g>
<g><animate attributeName="opacity" values="1;1;0;0;1" keyTimes="0;0.660;0.720;0.780;1" calcMode="discrete" dur="32s" begin="7s" repeatCount="indefinite"/><rect x="84" y="128" width="6" height="6" fill="#FF3D68"/><rect x="90" y="128" width="6" height="6" fill="#FF3D68"/><rect x="84" y="134" width="6" height="6" fill="#FF3D68"/><rect x="90" y="134" width="6" height="6" fill="#FF3D68"/></g>
<g opacity="0"><animate attributeName="opacity" values="0;0;1;1;0" keyTimes="0;0.660;0.720;0.780;1" calcMode="discrete" dur="32s" begin="7s" repeatCount="indefinite"/><rect x="96" y="134" width="6" height="6" fill="#FF3D68"/><rect x="102" y="134" width="6" height="6" fill="#FF3D68"/><rect x="108" y="134" width="6" height="6" fill="#FF3D68"/><rect x="114" y="134" width="6" height="6" fill="#FF3D68"/><rect x="114" y="128" width="6" height="6" fill="#FF3D68"/></g>
<g><animateTransform attributeName="transform" type="translate" values="0 0;0 0;0 8;0 0;0 8;0 0;0 8;0 0;0 0" keyTimes="0.000;0.150;0.180;0.210;0.240;0.270;0.300;0.330;1.000" dur="32s" begin="7s" repeatCount="indefinite"/>
<rect x="24" y="62" width="6" height="6" fill="#FFE7B3"/>
<rect x="90" y="62" width="6" height="6" fill="#FFE7B3"/>
<rect x="24" y="68" width="6" height="6" fill="#FFE7B3"/>
<rect x="30" y="68" width="6" height="6" fill="#FF3D68"/>
<rect x="84" y="68" width="6" height="6" fill="#FF3D68"/>
<rect x="90" y="68" width="6" height="6" fill="#FFE7B3"/>
<rect x="18" y="74" width="84" height="6" fill="#FF3D68"/>
<rect x="12" y="80" width="96" height="6" fill="#FF3D68"/>
<rect x="12" y="86" width="96" height="6" fill="#FF3D68"/>
<rect x="12" y="92" width="96" height="6" fill="#FF3D68"/>
<rect x="12" y="98" width="96" height="6" fill="#FF3D68"/>
<rect x="12" y="104" width="36" height="6" fill="#FF3D68"/>
<rect x="48" y="104" width="6" height="6" fill="#A8203F"/>
<rect x="54" y="104" width="12" height="6" fill="#FF3D68"/>
<rect x="66" y="104" width="6" height="6" fill="#A8203F"/>
<rect x="72" y="104" width="36" height="6" fill="#FF3D68"/>
<rect x="12" y="110" width="96" height="6" fill="#FF3D68"/>
<rect x="18" y="116" width="84" height="6" fill="#FF3D68"/>
<g><animate attributeName="opacity" values="1;0;1" keyTimes="0;0.96;1" calcMode="discrete" dur="4.2s" repeatCount="indefinite"/><rect x="36" y="92" width="6" height="6" fill="#2A0F1A"/><rect x="78" y="92" width="6" height="6" fill="#2A0F1A"/></g>
<g opacity="0"><animate attributeName="opacity" values="0;1;0" keyTimes="0;0.96;1" calcMode="discrete" dur="4.2s" repeatCount="indefinite"/><rect x="36" y="92" width="6" height="6" fill="#FF3D68"/><rect x="78" y="92" width="6" height="6" fill="#FF3D68"/></g>
</g>
<g opacity="0"><animate attributeName="opacity" values="1;1;0;0;1;1" keyTimes="0;0.12;0.13;0.82;0.83;1" calcMode="discrete" dur="32s" begin="7s" repeatCount="indefinite"/><g><animate attributeName="opacity" values="1;0;1" calcMode="discrete" dur="0.5s" repeatCount="indefinite"/><rect x="108" y="86" width="6" height="6" fill="#FF3D68"/><rect x="114" y="80" width="6" height="6" fill="#FF3D68"/><rect x="114" y="86" width="6" height="6" fill="#FF3D68"/></g></g>
<g opacity="0"><animateTransform attributeName="transform" type="translate" values="0 0;6 -22" dur="2.6s" begin="0.4s" repeatCount="indefinite"/><animate attributeName="opacity" values="0;1;1;0" keyTimes="0;0.2;0.7;1" dur="2.6s" begin="0.4s" repeatCount="indefinite"/><rect x="87" y="-12" width="3" height="3" fill="#ff7b72"/><rect x="93" y="-12" width="3" height="3" fill="#ff7b72"/><rect x="84" y="-9" width="15" height="3" fill="#ff7b72"/><rect x="84" y="-6" width="15" height="3" fill="#ff7b72"/><rect x="87" y="-3" width="9" height="3" fill="#ff7b72"/><rect x="90" y="0" width="3" height="3" fill="#ff7b72"/></g>
<g opacity="0"><animateTransform attributeName="transform" type="translate" values="0 0;6 -22" dur="2.6s" begin="1.9s" repeatCount="indefinite"/><animate attributeName="opacity" values="0;1;1;0" keyTimes="0;0.2;0.7;1" dur="2.6s" begin="1.9s" repeatCount="indefinite"/><rect x="105" y="-24" width="3" height="3" fill="#ff7b72"/><rect x="111" y="-24" width="3" height="3" fill="#ff7b72"/><rect x="102" y="-21" width="15" height="3" fill="#ff7b72"/><rect x="102" y="-18" width="15" height="3" fill="#ff7b72"/><rect x="105" y="-15" width="9" height="3" fill="#ff7b72"/><rect x="108" y="-12" width="3" height="3" fill="#ff7b72"/></g>
</g></g>
<g opacity="0"><animate attributeName="opacity" values="0;0;1;1;0;0" keyTimes="0;0.07;0.14;0.85;0.96;1" dur="7s" repeatCount="1" fill="freeze"/>
<rect x="60" y="12" width="380" height="46" rx="10" fill="#30363d"/>
<polygon points="110,58 130,58 118,74" fill="#30363d"/>
<text x="76" y="31" font-family="monospace" font-size="13" fill="#e6edf3">hi, i'm drako!</text>
<text x="76" y="48" font-family="monospace" font-size="12" fill="#8b949e">scroll down for projects + contact</text>
<polygon points="230,66 246,66 238,78" fill="#58a6ff"><animateTransform attributeName="transform" type="translate" values="0 0;0 6;0 0" dur="0.8s" repeatCount="indefinite"/></polygon>
</g>
<g opacity="0"><animate attributeName="opacity" values="0;0;1;1;0;0" keyTimes="0;0.000;0.040;0.433;0.473;1" dur="18s" begin="5s" repeatCount="indefinite"/><rect x="711.6" y="14" width="166.4" height="30" rx="9" fill="#30363d"/><polygon points="737.6,44 755.6,44 744.6,54" fill="#30363d"/><text x="722.6" y="33" font-family="monospace" font-size="12" fill="#e6edf3">featured projects ↓</text></g>
<g opacity="0"><animate attributeName="opacity" values="0;0;1;1;0;0" keyTimes="0;0.500;0.540;0.933;0.973;1" dur="18s" begin="5s" repeatCount="indefinite"/><rect x="696.4" y="14" width="181.6" height="30" rx="9" fill="#30363d"/><polygon points="722.4,44 740.4,44 729.4,54" fill="#30363d"/><text x="707.4" y="33" font-family="monospace" font-size="12" fill="#e6edf3">live stats + graphs ↓</text></g>
<text x="16" y="180" font-family="monospace" font-size="12" fill="#8b949e">state: content - Drako - burns hot and fast - cardio, sprints, big goals · 4-day streak · regenerated every 6h</text>
</svg>